<svg xmlns="http://www.w3.org/2000/svg" viewBox="0 0 24 24">
<path fill-rule="evenodd" clip-rule="evenodd" d="M0.125 11C0.125 17.0751 5.04987 22 11.125 22C17.2001 22 22.125 17.0751 22.125 11C22.125 4.92487 17.2001 0 11.125 0C5.04987 0 0.125 4.92487 0.125 11ZM11.125 2C10.3271 2 9.33556 2.67281 8.48389 4.37615C7.76751 5.8089 7.26745 7.77133 7.15097 10H15.099C14.9826 7.77133 14.4825 5.8089 13.7661 4.37615C12.9144 2.67281 11.9229 2 11.125 2ZM15.099 12H7.15097C7.26745 14.2287 7.76751 16.1911 8.48389 17.6239C9.33556 19.3272 10.3271 20 11.125 20C11.9229 20 12.9144 19.3272 13.7661 17.6239C14.4825 16.1911 14.9826 14.2287 15.099 12ZM5.14853 10C5.26648 7.50526 5.8225 5.22679 6.69504 3.48172C6.77087 3.33006 6.85015 3.18059 6.93283 3.03392C4.35343 4.39415 2.51483 6.97047 2.17993 10H5.14853ZM2.17993 12H5.14853C5.26648 14.4947 5.8225 16.7732 6.69504 18.5183C6.77087 18.6699 6.85015 18.8194 6.93283 18.9661C4.35343 17.6059 2.51483 15.0295 2.17993 12ZM17.1015 12H20.0701C19.7352 15.0295 17.8966 17.6059 15.3172 18.9661C15.3998 18.8194 15.4791 18.6699 15.555 18.5183C16.4275 16.7732 16.9835 14.4947 17.1015 12ZM20.0701 10H17.1015C16.9835 7.50526 16.4275 5.22679 15.555 3.48172C15.4791 3.33006 15.3998 3.18059 15.3172 3.03392C17.8966 4.39415 19.7352 6.97047 20.0701 10Z"/>
</svg>
