<svg xmlns="http://www.w3.org/2000/svg" viewBox="0 0 24 24">
<path fill-rule="evenodd" clip-rule="evenodd" d="M12.8207 1.17616C12.2988 0.941281 11.7012 0.941281 11.1793 1.17616L2.17927 5.22616C2.08956 5.26653 2.00385 5.31301 1.92254 5.36498C1.35339 5.72874 1 6.36136 1 7.05001V9.90343H4V12.9034V16.9034C2.34315 16.9034 1 18.2466 1 19.9034V22.9034H12H23V19.9034C23 18.2466 21.6569 16.9034 20 16.9034V12.9034V9.90343H23V7.05001C23 6.26299 22.5384 5.54913 21.8207 5.22616L12.8207 1.17616ZM12 20.9034H21V19.9034C21 19.3512 20.5523 18.9034 20 18.9034H12H4C3.44772 18.9034 3 19.3512 3 19.9034V20.9034H12ZM12 16.9034H13.5V14.9034V9.90343H10.5V14.9034V16.9034H12ZM8.5 14.9034V9.90343H6V12.9034V16.9034H8.5V14.9034ZM15.5 14.9034V16.9034H18V12.9034V9.90343H15.5V14.9034ZM3 7.05001L12 3L21 7.05001V7.90342H3V7.05001Z"/>
</svg>
