<svg preserveAspectRatio="none" width="100%" height="100%" overflow="visible" style="display: block;" viewBox="0 0 15 18.3333" fill="none" xmlns="http://www.w3.org/2000/svg">
<path id="Union" fill-rule="evenodd" clip-rule="evenodd" d="M2.5 1.66667C2.03976 1.66667 1.66667 2.03976 1.66667 2.5V15.8333C1.66667 16.2936 2.03976 16.6667 2.5 16.6667H12.5C12.9602 16.6667 13.3333 16.2936 13.3333 15.8333V7.5H9.16667C8.24619 7.5 7.5 6.75381 7.5 5.83333V1.66667H2.5ZM9.16667 2.84518L12.1548 5.83333H9.16667V2.84518ZM0 2.5C0 1.11929 1.11929 0 2.5 0H8.67851L15 6.32149V15.8333C15 17.214 13.8807 18.3333 12.5 18.3333H2.5C1.11929 18.3333 0 17.214 0 15.8333V2.5Z" fill="var(--fill-0, #AE0000)"/>
</svg>
