<svg preserveAspectRatio="none" width="100%" height="100%" overflow="visible" style="display: block;" viewBox="0 0 18.334 18.334" fill="none" xmlns="http://www.w3.org/2000/svg">
<g id="Group 1948758327">
<path id="Subtract" d="M9.16699 0C14.2296 0 18.334 4.10438 18.334 9.16699C18.334 14.2296 14.2296 18.334 9.16699 18.334C4.10438 18.334 0 14.2296 0 9.16699C2.33535e-07 4.10438 4.10438 2.33542e-07 9.16699 0ZM9.16699 11.25C8.47674 11.25 7.91717 11.8098 7.91699 12.5C7.91699 13.1904 8.47664 13.75 9.16699 13.75C9.85735 13.75 10.417 13.1904 10.417 12.5C10.4168 11.8098 9.85724 11.25 9.16699 11.25ZM8.33398 4.58398V10H10V4.58398H8.33398Z" fill="var(--fill-0, #AE0000)" fill-opacity="0.2"/>
<g id="Vector">
<path fill-rule="evenodd" clip-rule="evenodd" d="M8.33366 10.0003V4.58366H10.0003V10.0003H8.33366Z" fill="#AE0000"/>
<path d="M10.417 12.5003C10.417 13.1907 9.85735 13.7503 9.16699 13.7503C8.47664 13.7503 7.91699 13.1907 7.91699 12.5003C7.91699 11.81 8.47664 11.2503 9.16699 11.2503C9.85735 11.2503 10.417 11.81 10.417 12.5003Z" fill="#AE0000"/>
</g>
</g>
</svg>
