<svg preserveAspectRatio="none" width="100%" height="100%" overflow="visible" style="display: block;" viewBox="0 0 15.8334 17.1875" fill="none" xmlns="http://www.w3.org/2000/svg">
<path id="Union" d="M15.8334 3.125H11.9793V2.1875C11.9793 1.60734 11.7488 1.05094 11.3386 0.640704C10.9283 0.230468 10.3719 0 9.79175 0H6.04175C5.46159 0 4.90519 0.230468 4.49496 0.640704C4.08472 1.05094 3.85425 1.60734 3.85425 2.1875V3.125H0V5H1.35425V15.625C1.35425 16.0394 1.51887 16.4368 1.8119 16.7299C2.10493 17.0229 2.50235 17.1875 2.91675 17.1875H12.9168C13.3312 17.1875 13.7286 17.0229 14.0216 16.7299C14.3146 16.4368 14.4793 16.0394 14.4793 15.625V5H15.8334V3.125ZM5.72925 2.1875C5.72925 2.10462 5.76218 2.02513 5.82078 1.96653C5.87939 1.90792 5.95887 1.875 6.04175 1.875H9.79175C9.87463 1.875 9.95412 1.90792 10.0127 1.96653C10.0713 2.02513 10.1043 2.10462 10.1043 2.1875V3.125H5.72925V2.1875ZM12.6043 15.3125H3.22925V5H12.6043V15.3125ZM6.97925 6.82547V13.7005H5.10425V6.82547H6.97925ZM10.7293 6.82547V13.7005H8.85425V6.82547H10.7293Z" fill="var(--fill-0, #404042)"/>
</svg>
