<svg xmlns="http://www.w3.org/2000/svg" viewBox="0 0 32 32">
  <path d="M0 16C0 7.16344 7.16344 0 16 0C24.8366 0 32 7.16344 32 16C32 24.8366 24.8366 32 16 32C7.16344 32 0 24.8366 0 16Z" fill="#F4C600" fill-opacity="0.2" />
  <path fill-rule="evenodd" clip-rule="evenodd" d="M15.3333 17.3333V13H16.6667V17.3333H15.3333Z" fill="#DB8600" />
  <path d="M17 19.3333C17 19.8856 16.5523 20.3333 16 20.3333C15.4477 20.3333 15 19.8856 15 19.3333C15 18.7811 15.4477 18.3333 16 18.3333C16.5523 18.3333 17 18.7811 17 19.3333Z" fill="#DB8600" />
  <path fill-rule="evenodd" clip-rule="evenodd" d="M10.1503 19.1783L10.9339 21.3333H21.0661L21.8497 19.1783L16 10.4037L10.1503 19.1783ZM17.1094 9.66411C16.5816 8.87246 15.4184 8.87246 14.8906 9.66411L9.04086 18.4387C8.8056 18.7916 8.75226 19.2354 8.89721 19.634L9.68085 21.789C9.87246 22.3159 10.3732 22.6667 10.9339 22.6667H21.0661C21.6268 22.6667 22.1276 22.3159 22.3192 21.789L23.1028 19.634C23.2477 19.2354 23.1944 18.7916 22.9591 18.4387L17.1094 9.66411Z" fill="#DB8600" />
</svg>
