<svg xmlns="http://www.w3.org/2000/svg" viewBox="0 0 32 32">
  <path d="M0 16C0 7.16344 7.16344 0 16 0C24.8366 0 32 7.16344 32 16C32 24.8366 24.8366 32 16 32C7.16344 32 0 24.8366 0 16Z" fill="#DDE6F4" />
  <g clip-path="url(#notif-info-clip)">
    <path fill-rule="evenodd" clip-rule="evenodd" d="M16 10C19.3137 10 22 12.6863 22 16C22 19.3137 19.3137 22 16 22C12.6863 22 9.99999 19.3137 9.99999 16C9.99999 12.6863 12.6863 10 16 10ZM16 8.66669C20.0501 8.66669 23.3333 11.9499 23.3333 16C23.3333 20.0501 20.0501 23.3334 16 23.3334C11.9499 23.3334 8.66666 20.0501 8.66666 16C8.66666 11.9499 11.9499 8.66669 16 8.66669Z" fill="#073387" />
    <path fill-rule="evenodd" clip-rule="evenodd" d="M15.3333 15.3334V19.6667H16.6667V15.3334H15.3333Z" fill="#073387" />
    <path d="M17 13.3334C17 12.7811 16.5523 12.3334 16 12.3334C15.4477 12.3334 15 12.7811 15 13.3334C15 13.8856 15.4477 14.3334 16 14.3334C16.5523 14.3334 17 13.8856 17 13.3334Z" fill="#073387" />
  </g>
  <defs>
    <clipPath id="notif-info-clip">
      <rect width="16" height="16" fill="white" transform="translate(8 8)" />
    </clipPath>
  </defs>
</svg>
