<svg xmlns="http://www.w3.org/2000/svg" viewBox="0 0 24 24">
<path fill-rule="evenodd" clip-rule="evenodd" d="M15.8613 6.81343C16.2132 6.8135 16.5509 6.95345 16.7998 7.2021C17.0487 7.45101 17.1884 7.78958 17.1885 8.14156C17.1884 8.40395 17.1106 8.66066 16.9648 8.87886C16.819 9.09714 16.6117 9.26763 16.3691 9.36812C16.1266 9.46858 15.8591 9.49454 15.6016 9.44332C15.3443 9.39201 15.1074 9.26556 14.9219 9.08003C14.7365 8.89443 14.6098 8.65766 14.5586 8.40035C14.5075 8.14296 14.5344 7.87521 14.6348 7.63277C14.7353 7.39059 14.905 7.18278 15.1231 7.03707C15.3414 6.89125 15.5988 6.81344 15.8613 6.81343ZM15.1709 7.37984C15.1359 7.41153 15.1035 7.4463 15.0732 7.48238C15.1045 7.44498 15.1385 7.40968 15.1748 7.37691L15.1709 7.37984ZM15.71 7.12496L15.8613 7.11421C15.88 7.11422 15.8985 7.11521 15.917 7.11617L15.8613 7.11421C15.8105 7.11421 15.7599 7.11747 15.71 7.12496Z"/>
<path fill-rule="evenodd" clip-rule="evenodd" d="M10.4063 3.75386C11.7767 2.91358 13.391 2.55974 14.9873 2.74898C16.5833 2.9383 18.0693 3.65972 19.2051 4.79683C20.2047 5.79639 20.8858 7.07064 21.1621 8.45699C21.4383 9.8432 21.2978 11.2806 20.7578 12.5869C20.2176 13.8932 19.3016 15.0103 18.127 15.7968C16.9522 16.5833 15.5709 17.0041 14.1572 17.0058H14.1484C13.4579 17.0068 12.7717 16.9062 12.1104 16.7099L11.419 17.4033C11.3276 17.4945 11.2189 17.5668 11.0996 17.6162C10.9802 17.6655 10.8518 17.6914 10.7227 17.6914H9.65137V18.7617C9.65135 19.0228 9.54779 19.2733 9.36329 19.458C9.17861 19.6426 8.92814 19.7469 8.667 19.747H7.59668V20.8173C7.59663 21.0784 7.49217 21.3289 7.30762 21.5136C7.12292 21.6983 6.87251 21.8026 6.61133 21.8027H3.87012C3.42734 21.8026 3.00262 21.6265 2.68946 21.3134C2.37636 21.0002 2.20022 20.5747 2.2002 20.1318V17.6748C2.19969 17.4555 2.24219 17.2377 2.32618 17.0351C2.41035 16.8322 2.53452 16.6478 2.69043 16.4931L7.29102 11.8916C6.85107 10.4138 6.899 8.83098 7.43262 7.38082C7.98787 5.87225 9.03589 4.59422 10.4063 3.75386ZM13.9785 4.67574C11.2207 4.76409 8.96703 7.08606 8.9668 9.84761C8.96496 10.505 9.08915 11.1586 9.33204 11.7695C9.4076 11.9483 9.42878 12.146 9.39258 12.3369C9.35568 12.5307 9.26051 12.7089 9.1211 12.8486L4.16993 17.7988V19.832H5.62598V18.7617C5.62609 18.5007 5.72967 18.25 5.91407 18.0654C6.0988 17.8808 6.35015 17.7763 6.61133 17.7763H7.68165V16.706C7.68179 16.4451 7.78529 16.1943 7.96973 16.0097C8.15447 15.8251 8.40581 15.7207 8.667 15.7207H10.3145L11.1533 14.8818C11.293 14.7423 11.4721 14.6472 11.666 14.6103C11.8567 14.5741 12.0537 14.5955 12.2324 14.6709C12.8414 14.9131 13.4921 15.0372 14.1475 15.0361H14.1572C16.9196 15.0328 19.2419 12.7821 19.3301 10.0244L19.332 9.75875C19.3206 9.13974 19.1978 8.52629 18.9697 7.94917C18.7091 7.28989 18.3158 6.69064 17.8145 6.18941C17.3129 5.68814 16.7133 5.29451 16.0537 5.03414C15.394 4.7738 14.6873 4.65212 13.9785 4.67574Z"/>
</svg>
