<svg xmlns="http://www.w3.org/2000/svg" viewBox="0 0 26 25">
<path d="M21.8696 7.04561C21.4352 6.29344 20.7203 5.7442 19.8816 5.51828C19.043 5.29237 18.1489 5.40821 17.3955 5.84042L15.9177 6.74054C15.7332 6.83892 15.518 6.86312 15.3163 6.80818C15.1145 6.75324 14.9413 6.62332 14.8321 6.44496C14.723 6.26661 14.686 6.0533 14.7289 5.84862C14.7717 5.64394 14.8912 5.46336 15.0627 5.34379L16.5496 4.4376C16.5549 4.43415 16.5603 4.431 16.5659 4.42818C17.6956 3.78818 19.0324 3.62049 20.2851 3.96163C21.5379 4.30277 22.605 5.12511 23.2542 6.24952C23.9034 7.37393 24.082 8.70931 23.751 9.96479C23.4201 11.2203 22.6065 12.2941 21.4874 12.9524C21.4822 12.9559 21.4767 12.959 21.4711 12.9618L19.9429 13.7965C19.7535 13.8852 19.5374 13.8984 19.3387 13.8331C19.1401 13.7679 18.9738 13.6293 18.8739 13.4455C18.7741 13.2618 18.7481 13.0469 18.8014 12.8447C18.8547 12.6425 18.9833 12.4683 19.1607 12.3576L20.6792 11.5279C21.431 11.091 21.9787 10.3735 22.202 9.53308C22.4252 8.69264 22.3056 7.79796 21.8696 7.04561ZM10.0823 17.5924L8.60444 18.4925C7.8518 18.9125 6.96412 19.0195 6.13325 18.7903C5.30238 18.5612 4.59504 18.0143 4.16409 17.2679C3.73314 16.5214 3.6132 15.6354 3.83019 14.8013C4.04717 13.9672 4.58365 13.2519 5.3237 12.8101L6.84214 11.9803C7.01961 11.8697 7.14813 11.6955 7.20144 11.4933C7.25474 11.2911 7.22881 11.0761 7.12893 10.8924C7.02906 10.7087 6.86279 10.57 6.66411 10.5048C6.46543 10.4396 6.24934 10.4527 6.06001 10.5415L4.52782 11.375C4.5222 11.3779 4.51675 11.381 4.51149 11.3845C3.39241 12.0428 2.57879 13.1166 2.24786 14.3721C1.91693 15.6276 2.0955 16.963 2.74468 18.0874C3.39386 19.2118 4.46104 20.0341 5.71378 20.3753C6.96652 20.7164 8.30331 20.5487 9.43297 19.9087C9.43859 19.9059 9.44404 19.9027 9.44929 19.8993L10.9362 18.9931C11.0349 18.9405 11.1217 18.8683 11.1915 18.7808C11.2612 18.6934 11.3124 18.5927 11.3417 18.4848C11.3711 18.3769 11.3781 18.2641 11.3623 18.1534C11.3465 18.0427 11.3083 17.9364 11.2499 17.841C11.1915 17.7457 11.1142 17.6632 11.0228 17.5988C10.9314 17.5344 10.8278 17.4893 10.7184 17.4664C10.6089 17.4435 10.4959 17.4432 10.3864 17.4656C10.2768 17.4879 10.173 17.5324 10.0812 17.5963L10.0823 17.5924ZM21.0786 16.8788L18.7017 16.2418C18.4915 16.1855 18.2676 16.215 18.0792 16.3238C17.8908 16.4326 17.7533 16.6117 17.697 16.8219C17.6407 17.032 17.6702 17.2559 17.779 17.4443C17.8878 17.6327 18.0669 17.7702 18.2771 17.8265L20.654 18.4634C20.8642 18.5197 21.0881 18.4902 21.2765 18.3815C21.4649 18.2727 21.6023 18.0935 21.6586 17.8834C21.715 17.6732 21.6855 17.4493 21.5767 17.2609C21.4679 17.0725 21.2888 16.9351 21.0786 16.8788ZM4.92134 7.45417L7.2983 8.09108C7.50844 8.14738 7.73234 8.11791 7.92074 8.00913C8.10915 7.90036 8.24662 7.72119 8.30293 7.51106C8.35924 7.30092 8.32976 7.07702 8.22098 6.88862C8.11221 6.70021 7.93305 6.56274 7.72291 6.50643L5.34594 5.86952C5.1358 5.81322 4.91191 5.84269 4.7235 5.95147C4.5351 6.06024 4.39762 6.23941 4.34132 6.44954C4.28501 6.65968 4.31449 6.88358 4.42326 7.07198C4.53204 7.26039 4.7112 7.39786 4.92134 7.45417ZM14.6832 18.5619C14.473 18.5056 14.2491 18.5351 14.0607 18.6439C13.8723 18.7527 13.7348 18.9318 13.6785 19.142L13.0416 21.5189C12.9853 21.7291 13.0148 21.953 13.1236 22.1414C13.2323 22.3298 13.4115 22.4672 13.6216 22.5235C13.8318 22.5799 14.0557 22.5504 14.2441 22.4416C14.4325 22.3328 14.57 22.1537 14.6263 21.9435L15.2632 19.5666C15.3195 19.3564 15.29 19.1325 15.1812 18.9441C15.0725 18.7557 14.8933 18.6182 14.6832 18.5619ZM11.3168 5.77099C11.5269 5.8273 11.7508 5.79782 11.9392 5.68905C12.1276 5.58027 12.2651 5.40111 12.3214 5.19097L12.9583 2.81401C13.0146 2.60387 12.9852 2.37997 12.8764 2.19157C12.7676 2.00316 12.5885 1.86569 12.3783 1.80938C12.1682 1.75307 11.9443 1.78255 11.7559 1.89133C11.5675 2.0001 11.43 2.17926 11.3737 2.3894L10.7368 4.76637C10.6805 4.97651 10.71 5.2004 10.8187 5.38881C10.9275 5.57721 11.1067 5.71469 11.3168 5.77099Z"/>
<path fill-rule="evenodd" clip-rule="evenodd" d="M14.3089 10.8576L12.9999 8.07104L11.6909 10.8576L8.90436 12.1666L11.6909 13.4756L12.9999 16.2621L14.3089 13.4756L17.0954 12.1666L14.3089 10.8576Z"/>
</svg>
