<svg xmlns="http://www.w3.org/2000/svg" viewBox="0 0 23 21">
<path d="M14.4688 0.00683594C15.2629 0.070383 15.9508 0.601724 16.2061 1.36719L17.083 4H19.75L19.9541 4.01074C20.9628 4.11301 21.75 4.96435 21.75 6V18C21.75 19.0357 20.9628 19.887 19.9541 19.9893L19.75 20H3.75C2.64543 20 1.75 19.1046 1.75 18V6C1.75 4.89543 2.64543 4 3.75 4H6.41699L7.29395 1.36719C7.56624 0.550681 8.33068 4.78464e-05 9.19141 0H14.3086L14.4688 0.00683594ZM3.75 18H19.75V6H3.75V18ZM13.0283 10.7217L15.75 12L13.0283 13.2783L11.75 16L10.4717 13.2783L7.75 12L10.4717 10.7217L11.75 8L13.0283 10.7217ZM8.52441 4H14.9756L14.3086 2H9.19141L8.52441 4Z"/>
</svg>
