<svg xmlns="http://www.w3.org/2000/svg" viewBox="0 0 24 24">
  <path d="M7.90693 19.1537C7.9145 19.1574 7.92207 19.1611 7.92965 19.1648C10.0941 20.225 12.2019 20.3507 14.1333 19.8703C17.9247 18.9275 20.9129 15.6922 22.5626 13.0123C22.9451 12.3909 22.9451 11.6083 22.5626 10.9869C21.8406 9.8141 20.8623 8.53494 19.6725 7.38811L18.2582 8.80243C19.2882 9.78964 20.1662 10.9158 20.8373 11.9996C19.3039 14.4759 16.6908 17.1735 13.6507 17.9295C12.3368 18.2562 10.9202 18.2281 9.42165 17.639L7.90693 19.1537Z" />
  <path d="M8.01192 16.9274C6.49309 15.9896 4.87021 14.4295 3.20343 11.9996C5.16562 9.13915 7.06697 7.48409 8.80937 6.63071C10.5353 5.78538 12.1591 5.69907 13.6507 6.06995C14.8926 6.37877 16.0633 7.01161 17.1183 7.82102L18.5432 6.39608C17.2508 5.36675 15.7666 4.53518 14.1333 4.12906C12.2019 3.64879 10.0941 3.7745 7.92967 4.83457C5.78403 5.88545 3.63896 7.82586 1.54564 10.8807C1.08766 11.549 1.08765 12.4501 1.54562 13.1185C3.19502 15.5256 4.87655 17.2408 6.56518 18.3741L8.01192 16.9274Z" />
  <path d="M11.151 15.9096C11.4246 15.9688 11.7087 15.9999 12 15.9999C14.2092 15.9999 16 14.2091 16 11.9999C16 11.7086 15.9689 11.4245 15.9097 11.1509L11.151 15.9096Z" />
  <path d="M15.2591 9.6802C14.5339 8.66313 13.3444 7.99993 12 7.99993C9.7909 7.99993 8.00004 9.79079 8.00004 11.9999C8.00004 13.3443 8.66324 14.5337 9.68032 15.259L11.1354 13.8039C10.4637 13.4814 10 12.7948 10 11.9999C10 10.8954 10.8955 9.99993 12 9.99993C12.7949 9.99993 13.4815 10.4636 13.804 11.1353L15.2591 9.6802Z" />
  <path d="M12.9393 12H12V12.9393L12.9393 12Z" />
  <path fill-rule="evenodd" clip-rule="evenodd" d="M2.29289 20.2928L20.2929 2.29285L21.7071 3.70706L3.70711 21.7071L2.29289 20.2928Z" />
</svg>
