<svg xmlns="http://www.w3.org/2000/svg" viewBox="0 0 25 24">
<path d="M12.25 7H4.25V19H20.25V12H22.25V19C22.25 20.0357 21.4628 20.887 20.4541 20.9893L20.25 21H4.25C3.14543 21 2.25 20.1046 2.25 19V7C2.25 5.89543 3.14543 5 4.25 5H12.25V7ZM9.25 14C10.3546 14 11.25 14.8954 11.25 16V17H5.25V16C5.25 14.8954 6.14543 14 7.25 14H9.25ZM19.25 17H13.25V15H19.25V17ZM19.25 14H13.25V12H19.25V14ZM8.25 9C9.35457 9 10.25 9.89543 10.25 11C10.25 12.1046 9.35457 13 8.25 13C7.14543 13 6.25 12.1046 6.25 11C6.25 9.89543 7.14543 9 8.25 9ZM20.6455 3.00879C21.5466 3.10041 22.2498 3.86185 22.25 4.78711C22.25 6.92584 21.2062 8.93075 19.4541 10.1572L19.3232 10.249L19.2002 10.3281C18.6144 10.6736 17.8856 10.6736 17.2998 10.3281L17.1768 10.249L17.0459 10.1572C15.2938 8.93075 14.25 6.92584 14.25 4.78711C14.2502 3.80021 15.0502 3.00022 16.0371 3H20.4629L20.6455 3.00879ZM16.2568 5C16.3224 6.4055 17.0332 7.7071 18.1924 8.51855L18.25 8.55859L18.3076 8.51855C19.4668 7.7071 20.1776 6.4055 20.2432 5H16.2568Z"/>
</svg>
