<svg xmlns="http://www.w3.org/2000/svg" viewBox="0 0 24 24">
  <path fill-rule="evenodd" clip-rule="evenodd" d="M11 9V22.5H13V9H11Z" />
  <path fill-rule="evenodd" clip-rule="evenodd" d="M12 10.4142L16.2929 14.7071L17.7071 13.2929L12 7.58577L6.29289 13.2929L7.7071 14.7071L12 10.4142Z" />
  <path fill-rule="evenodd" clip-rule="evenodd" d="M12 4C9.78359 4 7.90155 5.44282 7.24685 7.44314L7.06981 7.98406L6.51433 8.10806C4.50286 8.55708 3 10.3542 3 12.5C3 14.9853 5.01472 17 7.5 17H9V19H7.5C3.91015 19 1 16.0899 1 12.5C1 9.59256 2.90804 7.13284 5.53951 6.30117C6.59566 3.77595 9.08929 2 12 2C14.9107 2 17.4043 3.77595 18.4605 6.30117C21.092 7.13285 23 9.59256 23 12.5C23 16.0899 20.0898 19 16.5 19H15V17H16.5C18.9853 17 21 14.9853 21 12.5C21 10.3542 19.4971 8.55708 17.4857 8.10806L16.9302 7.98406L16.7531 7.44314C16.0984 5.44282 14.2164 4 12 4Z" />
</svg>
