<svg xmlns="http://www.w3.org/2000/svg" viewBox="0 0 24 24">
  <path
    fill-rule="evenodd"
    clip-rule="evenodd"
    d="M8.5 6C8.5 4.067 10.067 2.5 12 2.5C13.933 2.5 15.5 4.067 15.5 6V9H8.5V6ZM6.5 9V6C6.5 2.96243 8.96243 0.5 12 0.5C15.0376 0.5 17.5 2.96243 17.5 6V9H19C20.1046 9 21 9.89543 21 11V21C21 22.1046 20.1046 23 19 23H5C3.89543 23 3 22.1046 3 21V11C3 9.89543 3.89543 9 5 9H6.5ZM19 11V21H5L5 11H19Z"
  />
  <path d="M12.3724 13.5873L11.9999 12.7678L11.6273 13.5873C11.2141 14.4962 10.4857 15.2246 9.57677 15.6378L8.75732 16.0104L9.57677 16.3829C10.4857 16.7961 11.2141 17.5246 11.6273 18.4335L11.9999 19.2529L12.3724 18.4335C12.7856 17.5246 13.5141 16.7961 14.423 16.3829L15.2424 16.0104L14.423 15.6378C13.5141 15.2246 12.7856 14.4962 12.3724 13.5873Z" />
</svg>
