<svg xmlns="http://www.w3.org/2000/svg" viewBox="0 0 24 24">
  <path
    fill-rule="evenodd"
    clip-rule="evenodd"
    d="M3 7C3 4.79086 4.79086 3 7 3C9.20914 3 11 4.79086 11 7C11 9.20914 9.20914 11 7 11C4.79086 11 3 9.20914 3 7ZM7 1C3.68629 1 1 3.68629 1 7C1 10.3137 3.68629 13 7 13C10.3137 13 13 10.3137 13 7C13 3.68629 10.3137 1 7 1ZM13 17C13 14.7909 14.7909 13 17 13C19.2091 13 21 14.7909 21 17C21 19.2091 19.2091 21 17 21C14.7909 21 13 19.2091 13 17ZM17 11C13.6863 11 11 13.6863 11 17C11 20.3137 13.6863 23 17 23C20.3137 23 23 20.3137 23 17C23 13.6863 20.3137 11 17 11ZM19 17C19 18.1046 18.1046 19 17 19C15.8954 19 15 18.1046 15 17C15 15.8954 15.8954 15 17 15C18.1046 15 19 15.8954 19 17ZM17 1.5V3C19.7614 3 22 5.23858 22 8V10H20V8C20 6.34315 18.6569 5 17 5V6.5L14 4L17 1.5ZM7 21V22.5L10 20L7 17.5V19C5.34315 19 4 17.6569 4 16V14H2V16C2 18.7614 4.23858 21 7 21ZM7.00207 4.47689L7.2903 5.11087C7.60999 5.81406 8.17358 6.37764 8.87676 6.69733L9.51074 6.98556L8.87676 7.27379C8.17357 7.59348 7.60999 8.15707 7.2903 8.86025L7.00207 9.49423L6.71384 8.86025C6.39415 8.15706 5.83057 7.59348 5.12738 7.27379L4.4934 6.98556L5.12738 6.69733C5.83057 6.37764 6.39415 5.81406 6.71384 5.11087L7.00207 4.47689Z"
  />
</svg>
