<svg xmlns="http://www.w3.org/2000/svg" viewBox="0 0 24 24">
  <path fill-rule="evenodd" clip-rule="evenodd" d="M11.0002 14V7.49998H13.0002V14H11.0002Z" />
  <path d="M13.5002 17C13.5002 17.8284 12.8286 18.5 12.0002 18.5C11.1718 18.5 10.5002 17.8284 10.5002 17C10.5002 16.1715 11.1718 15.5 12.0002 15.5C12.8286 15.5 13.5002 16.1715 13.5002 17Z" />
  <path
    fill-rule="evenodd"
    clip-rule="evenodd"
    d="M3.2256 16.7674L4.40106 20H19.5994L20.7748 16.7674L12.0002 3.60553L3.2256 16.7674ZM13.6643 2.49613C12.8727 1.30866 11.1277 1.30866 10.3361 2.49613L1.5615 15.658C1.2086 16.1874 1.1286 16.853 1.34601 17.4509L2.52147 20.6835C2.80889 21.4738 3.56005 22 4.40106 22H19.5994C20.4404 22 21.1915 21.4738 21.4789 20.6835L22.6544 17.4509C22.8718 16.853 22.7918 16.1874 22.4389 15.658L13.6643 2.49613Z"
  />
</svg>
