<svg xmlns="http://www.w3.org/2000/svg" viewBox="0 0 24 24">
  <path
    fill-rule="evenodd"
    clip-rule="evenodd"
    d="M12 21C16.9706 21 21 16.9706 21 12C21 7.02944 16.9706 3 12 3C7.02944 3 3 7.02944 3 12C3 16.9706 7.02944 21 12 21ZM12 23C18.0751 23 23 18.0751 23 12C23 5.92487 18.0751 1 12 1C5.92487 1 1 5.92487 1 12C1 18.0751 5.92487 23 12 23Z"
  />
  <path
    fill-rule="evenodd"
    clip-rule="evenodd"
    d="M11 13V6.5H13V13H11Z"
  />
  <path d="M13.5 16C13.5 16.8284 12.8284 17.5 12 17.5C11.1716 17.5 10.5 16.8284 10.5 16C10.5 15.1716 11.1716 14.5 12 14.5C12.8284 14.5 13.5 15.1716 13.5 16Z" />
</svg>
