<svg xmlns="http://www.w3.org/2000/svg" viewBox="0 0 24 24">
  <path
    fill-rule="evenodd"
    clip-rule="evenodd"
    d="M13.0001 8.92879L16.0356 11.9643L17.4498 10.5501L12.7071 5.80745L12 5.10034L11.2929 5.80745L6.55029 10.5501L7.96451 11.9643L11.0001 8.92875L11.0002 17.5001L13.0002 17.5001L13.0001 8.92879Z"
  />
  <path
    d="M11.4855 1.47489C11.8022 1.28488 12.1978 1.28488 12.5145 1.47489L20.5145 6.27489C20.8157 6.45561 21 6.78112 21 7.13238V16.8676C21 17.2189 20.8157 17.5444 20.5145 17.7251L12.5145 22.5251C12.1978 22.7151 11.8022 22.7151 11.4855 22.5251L3.4855 17.7251C3.1843 17.5444 3 17.2189 3 16.8676V7.13238C3 6.78112 3.1843 6.45561 3.4855 6.27489L11.4855 1.47489Z"
    stroke-width="2"
  />
</svg>
