<svg xmlns="http://www.w3.org/2000/svg" viewBox="0 0 25 24">
  <path
    fill-rule="evenodd"
    clip-rule="evenodd"
    d="M10.125 2C8.46815 2 7.125 3.34315 7.125 5V6.25204C3.67455 7.14012 1.125 10.2723 1.125 14C1.125 18.4183 4.70672 22 9.125 22C9.56397 22 9.99468 21.9646 10.4144 21.8966C10.6661 21.9645 10.9284 22 11.1954 22H14.125H18.125C19.7819 22 21.125 20.6569 21.125 19V5C21.125 3.34315 19.7819 2 18.125 2H10.125ZM14.4166 8C13.0064 6.75527 11.1539 6 9.125 6V5C9.125 4.44772 9.57272 4 10.125 4H18.125C18.6773 4 19.125 4.44772 19.125 5V8H14.4166ZM17.125 14C17.125 12.5429 16.7354 11.1767 16.0547 10H19.125V14H17.125ZM14.4166 20C15.5975 18.9578 16.4682 17.5724 16.873 16H19.125V19C19.125 19.5523 18.6773 20 18.125 20H14.4166ZM3.125 14C3.125 17.3137 5.81129 20 9.125 20C12.4387 20 15.125 17.3137 15.125 14C15.125 10.6863 12.4387 8 9.125 8C5.81129 8 3.125 10.6863 3.125 14ZM10.4034 12.7216L9.125 10L7.84655 12.7216L5.125 14L7.84655 15.2784L9.125 18L10.4034 15.2784L13.125 14L10.4034 12.7216Z"
  />
</svg>
