<svg xmlns="http://www.w3.org/2000/svg" viewBox="0 0 24 24">
  <path
    fill-rule="evenodd"
    clip-rule="evenodd"
    d="M6 10C6 13.3137 8.68629 16 12 16C15.3137 16 18 13.3137 18 10C18 6.68629 15.3137 4 12 4C8.68629 4 6 6.68629 6 10ZM12 2C7.58172 2 4 5.58172 4 10C4 10.6906 4.08751 11.3608 4.25203 12C4.08751 12.6392 4 13.3094 4 14C4 18.4183 7.58172 22 12 22C16.4183 22 20 18.4183 20 14C20 13.3094 19.9125 12.6392 19.748 12C19.9125 11.3608 20 10.6906 20 10C20 5.58172 16.4183 2 12 2ZM12 20C9.20347 20 6.8538 18.0868 6.18848 15.4979C7.64668 17.0387 9.71108 18 12 18C14.2889 18 16.3533 17.0387 17.8115 15.4979C17.1462 18.0868 14.7965 20 12 20ZM13.2784 8.72155L12 6L10.7216 8.72155L8 10L10.7216 11.2784L12 14L13.2784 11.2784L16 10L13.2784 8.72155Z"
  />
</svg>
