<svg xmlns="http://www.w3.org/2000/svg" viewBox="0 0 24 24">
  <path
    fill-rule="evenodd"
    clip-rule="evenodd"
    d="M16.0355 8.96442L13 5.92889V14.4852H11V5.92889L7.96447 8.96442L6.55025 7.55021L11.2929 2.80757L12 2.10046L12.7071 2.80757L17.4497 7.55021L16.0355 8.96442ZM16.5 18V16H7.5V18H16.5ZM3 12C3 9.05656 4.41194 6.4432 6.5997 4.79949L5.39835 3.2005C2.72943 5.20571 1 8.40104 1 12C1 18.0751 5.92487 23 12 23C18.0751 23 23 18.0751 23 12C23 8.40104 21.2706 5.20571 18.6017 3.2005L17.4003 4.79949C19.5881 6.4432 21 9.05656 21 12C21 16.9706 16.9706 21 12 21C7.02944 21 3 16.9706 3 12Z"
  />
</svg>
